<svg id="Layer_1" data-name="Layer 1" xmlns="http://www.w3.org/2000/svg" xmlns:xlink="http://www.w3.org/1999/xlink" viewBox="0 0 848 170"><defs><style>.cls-1{fill:#cbc9e8;}.cls-2,.cls-5{fill:none;}.cls-3{fill:url(#radial-gradient);}.cls-4{mask:url(#mask);}.cls-5{stroke:#fcd309;stroke-width:2px;stroke-dasharray:5 5;}.cls-6{fill:#fcd309;}.cls-7{clip-path:url(#clip-path);}.cls-8{fill:#2f2e41;}.cls-9{fill:#ffb8b8;}.cls-10{fill:#f2f2f2;}.cls-11{fill:#fff;}.cls-12{fill:#b3aeff;}.cls-13{fill:#ccc;}.cls-14{isolation:isolate;opacity:0.1;}.cls-15{fill:#3f3d56;}.cls-16{fill:#ff6584;}.cls-17{fill:#a0616a;}.cls-18{fill:#6c63ff;}</style><radialGradient id="radial-gradient" cx="-74.99" cy="586.1" r="1" gradientTransform="matrix(-848, 170, 848.01, 4230.03, -559758.9, -2466459.08)" gradientUnits="userSpaceOnUse"><stop offset="0" stop-color="#6c63ff"/><stop offset="1" stop-color="#ff6363"/></radialGradient><mask id="mask" x="0" y="-3" width="849" height="176" maskUnits="userSpaceOnUse"><g id="mask0_234_185" data-name="mask0 234 185"><rect class="cls-1" width="848" height="170" rx="12"/></g></mask><clipPath id="clip-path"><rect class="cls-2" x="428" y="19" width="174" height="132"/></clipPath></defs><rect class="cls-3" width="848" height="170" rx="12"/><g class="cls-4"><path class="cls-5" d="M683.62,5.2,683.21.4l1-.09L684.09-1h1.43V-2h5v1h5V-2h5v1h5V-2h5v1h5V-2h5v1h5V-2h5v1h5V-2h5v1h5V-2h5v1h5V-2h5v1h5V-2h5v1h5V-2h5v1h5V-2h5v1h5V-2h5v1h5V-2h5v1h5V-2h5v1h5.18V-2c2,0,3.72,0,5.32.07l0,1a47.9,47.9,0,0,1,5.19.38l.14-1a15,15,0,0,1,5.08,1.49l-.48.88a7.88,7.88,0,0,1,3.3,3.3l.88-.48a15,15,0,0,1,1.48,5.08l-1,.14a47.9,47.9,0,0,1,.38,5.19l1,0c.05,1.6.06,3.36.07,5.32h-1v5.08h1v4.85h-1v4.85h1V39h-1v4.85h1v4.84h-1V53.5h1v4.85h-1v4.84h1V68h-1v4.84h1v4.85h-1v4.85h1v4.84h-1v4.85h1v4.85h-1V102h1v4.85h-1v4.84h1v4.85h-1v4.85h1v4.84h-1V131h1v4.84h-1v4.85h1v4.85h-1v5.08h1c0,2,0,3.72-.07,5.32l-1,0a47.9,47.9,0,0,1-.38,5.19l1,.14a14.94,14.94,0,0,1-1.48,5.08l-.88-.48a7.88,7.88,0,0,1-3.3,3.3l.48.88a15,15,0,0,1-5.08,1.48l-.14-1a47.9,47.9,0,0,1-5.19.38l0,1c-1.6,0-3.36.06-5.32.07v-1h-5.32v1H816v-1h-5.31v1h-5.31v-1h-5.32v1h-5.31v-1h-5.31v1h-5.31v-1h-1.93l-.7-2.23-.95.3-1.85-5.87,1-.3L777.84,157l-1,.3L775,151.46l1-.3-.92-2.93c-.26-.82-.53-1.63-.8-2.44l-.95.33q-.83-2.4-1.76-4.76l.92-.37c-.63-1.59-1.31-3.16-2-4.71l-.91.42q-1.06-2.31-2.23-4.55l.88-.47c-.79-1.51-1.62-3-2.49-4.48l-.86.51c-.86-1.46-1.75-2.89-2.69-4.3l.84-.55q-1.41-2.14-2.93-4.21l-.81.6q-1.5-2.06-3.11-4l.78-.63c-1.08-1.32-2.19-2.62-3.34-3.88l-.74.67c-1.14-1.26-2.3-2.48-3.5-3.68l.71-.71q-1.82-1.8-3.72-3.53l-.67.75c-1.25-1.13-2.54-2.24-3.85-3.3l.63-.78q-2-1.62-4.05-3.13l-.59.8q-2.05-1.5-4.17-2.89l.55-.84c-.72-.47-1.43-.93-2.16-1.38s-1.44-.91-2.15-1.38l-.55.84c-1.44-1-2.85-1.94-4.24-3l.6-.81c-1.38-1-2.72-2.05-4-3.13l-.63.78c-1.33-1.09-2.64-2.22-3.91-3.37l.67-.74c-1.26-1.15-2.49-2.32-3.69-3.53l-.71.71q-1.82-1.84-3.54-3.76l.75-.66q-1.71-1.9-3.31-3.89l-.78.62c-1.08-1.33-2.13-2.7-3.14-4.09l.81-.59q-1.5-2.07-2.89-4.21l-.84.55c-.93-1.45-1.83-2.91-2.69-4.4l.86-.5q-1.27-2.2-2.44-4.49l-.89.46c-.78-1.53-1.53-3.08-2.23-4.65l.91-.41c-.7-1.55-1.35-3.12-2-4.71l-.93.36q-.93-2.4-1.74-4.86l.95-.31q-.81-2.41-1.48-4.89l-1,.26c-.45-1.65-.87-3.32-1.23-5l1-.22q-.54-2.49-1-5l-1,.16c-.28-1.69-.51-3.4-.71-5.11l1-.11c-.1-.85-.18-1.69-.26-2.54l-.2-2.4-1,.08L684,10l1-.08-.42-4.81Z"/><path class="cls-6" d="M709.5,0H824c11.31,0,17,0,20.48,3.51S848,12.69,848,24V146c0,11.31,0,17-3.52,20.49S835.31,170,824,170H786.5l-11-35.67a82.92,82.92,0,0,0-32.62-44.21l-.88-.59A81.45,81.45,0,0,1,709.5,0Z"/></g><g class="cls-7"><path class="cls-8" d="M528.27,25.42c1.49,3.2-1.67,4.1-5.29,5.81s-6.34,3.58-7.83.39-2.7-9.53,2.42-11.95C522.88,17.17,526.78,22.23,528.27,25.42Z"/><path class="cls-9" d="M520.88,31.7A4.9,4.9,0,1,0,516,26.8,4.89,4.89,0,0,0,520.88,31.7Z"/><path class="cls-8" d="M545,48.54l-.51-.65c-.22-.28-.44-.55-.66-.8-2.53-2.94-5.22-4.78-8.18-5h-.05l-5.9,5.78-2,2,0,.11,1.08,2.71h19A46.66,46.66,0,0,0,545,48.54Z"/><path class="cls-8" d="M515.58,28.77l1.74-.82-.24-2.53,1.17,2.09.83-.39-.14-1.48.68,1.22,6.2-2.92A5.14,5.14,0,0,0,519,21.45l-.9.42a5.19,5.19,0,0,0-2.47,6.9Z"/><path class="cls-10" d="M556,117.74H454.15a3.29,3.29,0,0,1-3.28-3.29V53a2.42,2.42,0,0,1,2.4-2.41H556.82a2.42,2.42,0,0,1,1.72.72,2.45,2.45,0,0,1,.72,1.74v61.45a3.29,3.29,0,0,1-3.28,3.29Z"/><path class="cls-11" d="M457.33,114.45h95.48a3.15,3.15,0,0,0,2.24-.94,3.18,3.18,0,0,0,.93-2.26V59.06a3.18,3.18,0,0,0-.93-2.26,3.14,3.14,0,0,0-2.24-.93H457.33a3.18,3.18,0,0,0-3.18,3.19v52.19a3.19,3.19,0,0,0,3.18,3.2Z"/><path class="cls-12" d="M559.21,52.77H450.83V51.09a3.28,3.28,0,0,1,3.28-3.3H555.93a3.28,3.28,0,0,1,3.28,3.3Z"/><path class="cls-11" d="M456.8,51.14a.86.86,0,0,0,.85-.86.85.85,0,1,0-1.7,0A.86.86,0,0,0,456.8,51.14Z"/><path class="cls-11" d="M460,51.14a.86.86,0,0,0,.85-.86.85.85,0,0,0-1.7,0A.86.86,0,0,0,460,51.14Z"/><path class="cls-11" d="M463.26,51.14a.86.86,0,0,0,.85-.86.85.85,0,0,0-1.7,0A.86.86,0,0,0,463.26,51.14Z"/><path class="cls-13" d="M508,103.13h-8.53a1.89,1.89,0,0,1-1.89-1.9V92.65a1.88,1.88,0,0,1,1.89-1.89H508a1.88,1.88,0,0,1,1.89,1.89v8.58a1.91,1.91,0,0,1-.55,1.34,1.88,1.88,0,0,1-1.34.56Zm-8.53-12a1.54,1.54,0,0,0-1.06.44,1.49,1.49,0,0,0-.43,1.06v8.58a1.49,1.49,0,0,0,1.49,1.5H508a1.49,1.49,0,0,0,1.49-1.5V92.65a1.49,1.49,0,0,0-.43-1.06,1.54,1.54,0,0,0-1.06-.44Z"/><path class="cls-13" d="M506.36,100.73h-5.17a.63.63,0,0,1-.42-.17.61.61,0,0,1-.17-.43V93.75a.6.6,0,0,1,.59-.6h3.75a.64.64,0,0,1,.37.13l1.42,1.15a.54.54,0,0,1,.16.21.58.58,0,0,1,.06.26v5.23a.61.61,0,0,1-.17.43.59.59,0,0,1-.42.17Zm-5.17-7.18a.2.2,0,0,0-.14.06.24.24,0,0,0-.05.14v6.38a.25.25,0,0,0,.05.15.24.24,0,0,0,.14,0h5.17a.24.24,0,0,0,.14,0,.25.25,0,0,0,.06-.15V94.9a.29.29,0,0,0,0-.09l-.06-.07-1.42-1.15a.28.28,0,0,0-.12,0Z"/><path class="cls-13" d="M505.36,95.94h-3.17a.2.2,0,0,1-.14,0,.2.2,0,0,1-.06-.15.2.2,0,0,1,.06-.14.2.2,0,0,1,.14-.06h3.17a.2.2,0,0,1,.14.06.2.2,0,0,1,.06.14.2.2,0,0,1-.06.15A.2.2,0,0,1,505.36,95.94Z"/><path class="cls-13" d="M505.36,97.14h-3.17a.17.17,0,0,1-.14-.06.18.18,0,0,1-.06-.14.2.2,0,0,1,.06-.14.17.17,0,0,1,.14-.06h3.17a.17.17,0,0,1,.14.06.2.2,0,0,1,.06.14.18.18,0,0,1-.06.14A.17.17,0,0,1,505.36,97.14Z"/><path class="cls-13" d="M505.36,98.34h-3.17a.17.17,0,0,1-.14-.06.19.19,0,0,1,0-.28.17.17,0,0,1,.14-.06h3.17a.17.17,0,0,1,.14.06.19.19,0,0,1,0,.28A.17.17,0,0,1,505.36,98.34Z"/><path class="cls-13" d="M528.3,103.13h-8.54a1.85,1.85,0,0,1-1.33-.56,1.88,1.88,0,0,1-.56-1.34V92.65a1.89,1.89,0,0,1,1.89-1.89h8.54a1.88,1.88,0,0,1,1.88,1.89v8.58a1.89,1.89,0,0,1-1.88,1.9Zm-8.54-12a1.54,1.54,0,0,0-1,.44,1.5,1.5,0,0,0-.44,1.06v8.58a1.5,1.5,0,0,0,1.49,1.5h8.54a1.5,1.5,0,0,0,1.49-1.5V92.65a1.5,1.5,0,0,0-.44-1.06,1.54,1.54,0,0,0-1.05-.44Z"/><path class="cls-13" d="M526.81,99.14h-5.56a.62.62,0,0,1-.6-.6V95.35a.62.62,0,0,1,.18-.43.59.59,0,0,1,.42-.17h5.56a.59.59,0,0,1,.42.17.62.62,0,0,1,.18.43v3.19a.62.62,0,0,1-.6.6Zm-5.56-4a.24.24,0,0,0-.14,0,.2.2,0,0,0-.06.15v3.19a.21.21,0,0,0,.2.2h5.56a.21.21,0,0,0,.2-.2V95.35a.2.2,0,0,0-.06-.15.24.24,0,0,0-.14,0Z"/><path class="cls-13" d="M524,97.47a.62.62,0,0,1-.32-.09l-3-1.87a.16.16,0,0,1-.09-.12.25.25,0,0,1,0-.15.2.2,0,0,1,.13-.09.21.21,0,0,1,.15,0l3,1.86a.22.22,0,0,0,.22,0l3-1.86a.21.21,0,0,1,.15,0,.16.16,0,0,1,.12.09.2.2,0,0,1,0,.15.16.16,0,0,1-.09.12l-3,1.87a.62.62,0,0,1-.32.09Z"/><path class="cls-13" d="M487.79,103.13h-8.54a1.85,1.85,0,0,1-1.33-.56,1.91,1.91,0,0,1-.55-1.34V92.65a1.93,1.93,0,0,1,.55-1.34,1.88,1.88,0,0,1,1.33-.55h8.54a1.89,1.89,0,0,1,1.89,1.89v8.58a1.88,1.88,0,0,1-.56,1.34,1.85,1.85,0,0,1-1.33.56Zm-8.54-12a1.54,1.54,0,0,0-1.05.44,1.5,1.5,0,0,0-.44,1.06v8.58a1.5,1.5,0,0,0,1.49,1.5h8.54a1.48,1.48,0,0,0,1-.44,1.5,1.5,0,0,0,.44-1.06V92.65a1.5,1.5,0,0,0-.44-1.06,1.52,1.52,0,0,0-1-.44Z"/><path class="cls-13" d="M486.3,99.14h-5.56a.6.6,0,0,1-.42-.18.59.59,0,0,1-.17-.42V95.35a.61.61,0,0,1,.17-.43.59.59,0,0,1,.42-.17h5.56a.59.59,0,0,1,.42.17.62.62,0,0,1,.18.43v3.19a.62.62,0,0,1-.6.6Zm-5.56-4a.24.24,0,0,0-.14,0,.2.2,0,0,0-.06.15v3.19a.21.21,0,0,0,.2.2h5.56a.21.21,0,0,0,.2-.2V95.35a.2.2,0,0,0-.06-.15.24.24,0,0,0-.14,0Z"/><path class="cls-13" d="M485.42,99.14h-4a.33.33,0,0,1-.19-.06.4.4,0,0,1-.15-.14.42.42,0,0,1,0-.4l1.2-2.1a.4.4,0,0,1,.15-.14.36.36,0,0,1,.4,0,.32.32,0,0,1,.14.14l.78,1.36.45-.79a.29.29,0,0,1,.15-.14.33.33,0,0,1,.19-.06.36.36,0,0,1,.2.06.4.4,0,0,1,.15.14l.87,1.53a.36.36,0,0,1,0,.4.32.32,0,0,1-.14.14.36.36,0,0,1-.2.06Zm0-.4-.88-1.53-.62,1.09-.07.07a.18.18,0,0,1-.1,0h0a.16.16,0,0,1-.1,0l-.07-.07-.95-1.66-1.21,2.1Z"/><path class="cls-13" d="M485.71,96.34a.4.4,0,0,0,0-.8.4.4,0,0,0,0,.8Z"/><path class="cls-9" d="M580.66,148.34h-2.43l-1.16-9.44h3.59Z"/><path class="cls-8" d="M581.29,150.71h-7.85v-.1a2.94,2.94,0,0,1,.23-1.17,3.17,3.17,0,0,1,.66-1,3,3,0,0,1,1-.66,3,3,0,0,1,1.17-.24h4.8Z"/><path class="cls-9" d="M590.59,148.34h-2.43L587,138.9h3.59Z"/><path class="cls-8" d="M591.21,150.71h-7.85v-.1a3,3,0,0,1,.24-1.17,3.17,3.17,0,0,1,.66-1,3,3,0,0,1,1-.66,3,3,0,0,1,1.17-.24h4.79Z"/><path class="cls-8" d="M589.86,144.25l-2.25-.69a.85.85,0,0,1-.43-.29.9.9,0,0,1-.2-.47l-2.1-20a.09.09,0,0,0,0-.07l-.07,0s0,0-.06,0a.07.07,0,0,0,0,.06l-3.52,19.4a.91.91,0,0,1-.13.33,1,1,0,0,1-.25.25,1,1,0,0,1-.32.14.87.87,0,0,1-.36,0l-2.88-.59a.94.94,0,0,1-.53-.34.87.87,0,0,1-.18-.6l2.14-31.8L593.17,108,591,143.45a.88.88,0,0,1-.27.59.9.9,0,0,1-.62.25.82.82,0,0,1-.26,0Z"/><path class="cls-9" d="M589.85,81.87A4.9,4.9,0,1,0,585,77,4.9,4.9,0,0,0,589.85,81.87Z"/><path class="cls-11" d="M578.63,109.74l3.15-19.92a7.38,7.38,0,0,1,1.14-3,7.51,7.51,0,0,1,2.26-2.23,7.37,7.37,0,0,1,3-1.1,7.49,7.49,0,0,1,3.16.23h0a7.53,7.53,0,0,1,5.28,8.63l-3.29,17.8Z"/><path class="cls-9" d="M591.2,113.31a2.12,2.12,0,0,0,.6-.63,2,2,0,0,0,.28-.82A2.14,2.14,0,0,0,592,111a2,2,0,0,0-.45-.74l3.26-6.34-3.67.4-2.53,6a2.06,2.06,0,0,0-.53,1.33,2,2,0,0,0,1.74,2,2,2,0,0,0,1.39-.32Z"/><path class="cls-11" d="M591.89,109.13a.8.8,0,0,1-.48-.23l-1.25-1.15a1,1,0,0,1-.26-.47.91.91,0,0,1,.05-.54l2.49-5.93-.35-11.72a2.89,2.89,0,0,1,.36-1.07,2.77,2.77,0,0,1,.75-.85,2.88,2.88,0,0,1,1-.49,2.81,2.81,0,0,1,1.12-.07,2.92,2.92,0,0,1,1.06.37,2.87,2.87,0,0,1,.84.75,2.79,2.79,0,0,1,.49,1,2.87,2.87,0,0,1,.07,1.13l.6,7.37a9.23,9.23,0,0,1-1.77,6.26l-3.88,5.28a.92.92,0,0,1-.28.24.9.9,0,0,1-.36.12Z"/><path class="cls-9" d="M561.76,74.3a2.11,2.11,0,0,0,.34.8,1.91,1.91,0,0,0,.65.58,2,2,0,0,0,.82.25,1.94,1.94,0,0,0,.86-.12L569,81.29,570,77.75l-4.48-4.67A2,2,0,0,0,563.13,72a2,2,0,0,0-1.12.9,2,2,0,0,0-.25,1.41Z"/><path class="cls-11" d="M565.32,76.57a.88.88,0,0,1,.4-.36l1.54-.7a.91.91,0,0,1,.54-.06.82.82,0,0,1,.47.26l4.46,4.61,10.88,4.24a3,3,0,0,1,.84.76,2.9,2.9,0,0,1,.48,1,3,3,0,0,1,.06,1.12,2.91,2.91,0,0,1-2.14,2.4,2.82,2.82,0,0,1-1.12,0,2.79,2.79,0,0,1-1.06-.37l-7-2.32a9.23,9.23,0,0,1-5-4.08l-3.32-5.65a.89.89,0,0,1-.11-.36.78.78,0,0,1,0-.37.66.66,0,0,1,.09-.19Z"/><path class="cls-14" d="M593.8,94l-.19,6.39L590,106.74l3-7.12Z"/><path class="cls-8" d="M589.29,77.89a1.21,1.21,0,0,1-.87-.21,1.31,1.31,0,0,1-.53-.73,1.88,1.88,0,0,0-.49-.92,1.93,1.93,0,0,0-.89-.53c-.89-.21-2,.22-2.64-.46a1.48,1.48,0,0,1-.3-.55,1.3,1.3,0,0,1,0-.62,2.68,2.68,0,0,1,1.1-1.56,6.76,6.76,0,0,1,3.75-1.41,13.57,13.57,0,0,1,2.11.11,9.43,9.43,0,0,1,2.16.39,5.26,5.26,0,0,1,2.06,1.46,5.09,5.09,0,0,1,1.11,2.27,5.88,5.88,0,0,1-.07,2.54A6,6,0,0,1,594.65,80a6.32,6.32,0,0,1-2.41,1.84,1,1,0,0,1-.72,0c-.59-.23-.49-1-.23-1.45s.73-1,.5-1.67a1.23,1.23,0,0,0-.62-.67,3.11,3.11,0,0,0-1.86-.15Z"/><path class="cls-11" d="M560.13,80.66H499.77a3.28,3.28,0,0,1-2.32-1,3.32,3.32,0,0,1-1-2.33v-13a3.29,3.29,0,0,1,3.28-3.29h60.36a3.29,3.29,0,0,1,3.28,3.29v13a3.32,3.32,0,0,1-1,2.33,3.26,3.26,0,0,1-2.32,1Z"/><path class="cls-15" d="M560.13,80.76H499.77a3.37,3.37,0,0,1-2.39-1,3.41,3.41,0,0,1-1-2.4v-13A3.4,3.4,0,0,1,499.77,61h60.36a3.4,3.4,0,0,1,3.38,3.39v13a3.41,3.41,0,0,1-1,2.4A3.35,3.35,0,0,1,560.13,80.76ZM499.77,61.4a3,3,0,0,0-2.11.88,3,3,0,0,0-.87,2.11v13a3,3,0,0,0,.87,2.12,3,3,0,0,0,2.11.88h60.36a3,3,0,0,0,3-3v-13a3,3,0,0,0-3-3Z"/><path class="cls-10" d="M552.79,77.46H507.12a3.25,3.25,0,0,1-2.32-1,3.33,3.33,0,0,1-1-2.33V67.39a3.29,3.29,0,0,1,3.28-3.3h45.67a3.29,3.29,0,0,1,3.27,3.3v6.78a3.29,3.29,0,0,1-1,2.33,3.23,3.23,0,0,1-2.31,1Z"/><path class="cls-16" d="M516.94,73.81A3.94,3.94,0,1,0,513,69.87,3.93,3.93,0,0,0,516.94,73.81Z"/><path class="cls-15" d="M550,77.07l-5.53-4.66L539,67.82a.78.78,0,0,0-.51-.18.74.74,0,0,0-.51.19l-5.42,4.6-1.32,1.12-2-1.68-6.06-5.11a.78.78,0,0,0-1,0l-6,5.14L510,77.11a.21.21,0,0,0-.06.1.17.17,0,0,0,0,.12.17.17,0,0,0,.07.1.2.2,0,0,0,.11,0l12.59,0h4l0,0,11.88,0,11.33,0a.15.15,0,0,0,.11,0,.18.18,0,0,0,.08-.09.24.24,0,0,0,0-.12A.17.17,0,0,0,550,77.07Z"/><path class="cls-13" d="M601.8,151H563.68a.17.17,0,0,1-.14-.06.19.19,0,0,1,0-.28.17.17,0,0,1,.14-.06H601.8a.2.2,0,0,1,0,.4Z"/><path class="cls-9" d="M548,45.32a2.28,2.28,0,0,0-1.44-1,1.88,1.88,0,0,0-.33-.05L531.05,30.67a1.78,1.78,0,0,0-1.12-.54h-.25a1.77,1.77,0,0,0-1,.33,1.81,1.81,0,0,0-.71,1.85,1.75,1.75,0,0,0,.5.9l5.79,5.08,9.51,8.33a2.54,2.54,0,0,0,.07.47A2.24,2.24,0,0,0,547,48.56a2.26,2.26,0,0,0,.77-.6l.06-.07a2.26,2.26,0,0,0,.46-1.27,2.22,2.22,0,0,0-.33-1.3Z"/><path class="cls-9" d="M522.07,58.42l-.14-5.75-.12-4.78-.08-3.35L521.57,38a1.9,1.9,0,0,0-.38-1,1.87,1.87,0,0,0-.84-.6,1.8,1.8,0,0,0-1.9.5,1,1,0,0,0-.15.2,1.72,1.72,0,0,0-.31,1.2l.35,9.52.18,4.78.22,6.09-.17.28a2.23,2.23,0,0,0-.25.87,2.13,2.13,0,0,0,.11.9,2.15,2.15,0,0,0,.48.81,2.13,2.13,0,0,0,.77.55,2.39,2.39,0,0,0,.92.18,2.26,2.26,0,0,0,.92-.22,2.25,2.25,0,0,0,1.26-1.7,2.32,2.32,0,0,0-.71-2Z"/><path class="cls-13" d="M535.69,42.11l-1.4-3.82L532,32.1a3.26,3.26,0,0,0-.77-1.19,3.17,3.17,0,0,0-1.21-.74l-.11,0a3.21,3.21,0,0,0-2.63.37l-7.65,4.87a3.22,3.22,0,0,0-1,4.34,53.14,53.14,0,0,0,3.13,4.83c.89,1.22,2.55,1.35,2.84,3.35h5.64l5.71-5.16Z"/><path class="cls-17" d="M448.09,88.81a4.62,4.62,0,1,0-4.6-4.62A4.61,4.61,0,0,0,448.09,88.81Z"/><path class="cls-17" d="M459.38,81l.14.11a2.24,2.24,0,0,1,.49.72,2.06,2.06,0,0,1,.15.85,2,2,0,0,1-.2.84,2.19,2.19,0,0,1-.53.68l-.16.13.31,10.56a1.59,1.59,0,0,1-.29,1,1.62,1.62,0,0,1-.81.6h0l-8.53.91a1.77,1.77,0,0,1-.69-.07,1.6,1.6,0,0,1-.62-.32,1.77,1.77,0,0,1-.44-.54,1.74,1.74,0,0,1-.2-.67,1.77,1.77,0,0,1,.4-1.3,1.77,1.77,0,0,1,.54-.44,1.74,1.74,0,0,1,.66-.2l6.09-.53,1.05-9.15-.19-.2A2.07,2.07,0,0,1,458,80.56a2.06,2.06,0,0,1,1.41.45Z"/><path class="cls-17" d="M455.67,148.55H458l1.1-8.91h-3.39Z"/><path class="cls-8" d="M455.08,147.79h4.52a3,3,0,0,1,1.11.22,2.94,2.94,0,0,1,.93.63,2.89,2.89,0,0,1,.85,2.05v.09h-7.41Z"/><path class="cls-17" d="M432.84,145.35l2,1.19,5.47-7.09-2.91-1.74Z"/><path class="cls-8" d="M432.72,144.41l3.88,2.32h0a2.91,2.91,0,0,1,.84.76,2.74,2.74,0,0,1,.48,1,2.69,2.69,0,0,1,.06,1.13,2.85,2.85,0,0,1-.37,1.06l-.05.08L431.2,147Z"/><path class="cls-8" d="M458.5,145.4h-2.57a.82.82,0,0,1-.56-.22.86.86,0,0,1-.28-.54l-2.59-24.49a.24.24,0,0,0-.07-.16.29.29,0,0,0-.16-.09.28.28,0,0,0-.18,0,.25.25,0,0,0-.12.13l-4.68,10.41L439,144a.85.85,0,0,1-1.06.34l-3.31-1.47a.86.86,0,0,1-.29-.21.73.73,0,0,1-.17-.31.82.82,0,0,1,0-.35,1.06,1.06,0,0,1,.12-.34l7.61-12.81,2.33-10.79c-.73-4.68,2.42-11.64,2.45-11.71l0,0,8.67-3.41,0,0c3.42,11.28,5.5,23.42,4,41.62a.86.86,0,0,1-.28.56.83.83,0,0,1-.57.22Z"/><path class="cls-15" d="M446.32,107.5l0-.09s-1.95-4.13-3.44-8.49a6.52,6.52,0,0,1-.31-2.63,6.34,6.34,0,0,1,.76-2.54,6.47,6.47,0,0,1,4.13-3.19h0a6.49,6.49,0,0,1,7.53,3.9c1.18,3,.8,6.13.45,8.62v0l0,0Z"/><path class="cls-8" d="M453.67,81.58h-7.31v-3.2c1.6-.64,3.17-1.19,4.12,0a3.15,3.15,0,0,1,2.25.94,3.19,3.19,0,0,1,.94,2.26Z"/><path class="cls-8" d="M446,77.81c-4.37,0-5.59,5.51-5.59,8.61,0,1.73.78,2.35,2,2.56l.43-2.32,1,2.42h1.08l.35-.71.76.69c3.07,0,5.55.46,5.55-2.63S450.47,77.81,446,77.81Z"/><path class="cls-13" d="M466.32,151H428.2a.2.2,0,0,1,0-.4h38.12a.17.17,0,0,1,.14.06.19.19,0,0,1,0,.28A.17.17,0,0,1,466.32,151Z"/><path class="cls-11" d="M467,85.35H458.5a1.85,1.85,0,0,1-1.33-.56,1.91,1.91,0,0,1-.55-1.34V74.87a1.93,1.93,0,0,1,.55-1.34A1.85,1.85,0,0,1,458.5,73H467a1.85,1.85,0,0,1,1.33.56,1.89,1.89,0,0,1,.56,1.34v8.58a1.88,1.88,0,0,1-.56,1.34,1.85,1.85,0,0,1-1.33.56Z"/><path class="cls-15" d="M467,85.35H458.5a1.85,1.85,0,0,1-1.33-.56,1.91,1.91,0,0,1-.55-1.34V74.87a1.93,1.93,0,0,1,.55-1.34A1.85,1.85,0,0,1,458.5,73H467a1.85,1.85,0,0,1,1.33.56,1.89,1.89,0,0,1,.56,1.34v8.58a1.88,1.88,0,0,1-.56,1.34,1.85,1.85,0,0,1-1.33.56Zm-8.54-12a1.5,1.5,0,0,0-1.49,1.5v8.58A1.5,1.5,0,0,0,458.5,85H467a1.48,1.48,0,0,0,1-.44,1.5,1.5,0,0,0,.44-1.06V74.87a1.5,1.5,0,0,0-.44-1.06,1.48,1.48,0,0,0-1-.44Z"/><path class="cls-18" d="M465.55,81.85H460a.59.59,0,0,1-.42-.17.61.61,0,0,1-.17-.42v-4.2a.61.61,0,0,1,.17-.42.59.59,0,0,1,.42-.17h1.57a.59.59,0,0,1,.29.07.53.53,0,0,1,.21.21l.44.71h3.05a.62.62,0,0,1,.6.6v3.2a.62.62,0,0,1-.18.42.59.59,0,0,1-.42.17Z"/><path class="cls-17" d="M465.37,84l.08.16a1.9,1.9,0,0,1,.17.85,2,2,0,0,1-.18.84,2,2,0,0,1-1.26,1.12l-.2,0-3.79,9.86a1.59,1.59,0,0,1-.64.78,1.56,1.56,0,0,1-1,.24h0l-8.22-2.49a1.81,1.81,0,0,1-.61-.33,1.77,1.77,0,0,1-.44-.54,1.69,1.69,0,0,1-.2-.66,1.84,1.84,0,0,1,.07-.7,1.81,1.81,0,0,1,.33-.61,1.9,1.9,0,0,1,.54-.44,2,2,0,0,1,.67-.19,1.79,1.79,0,0,1,.69.08l5.82,1.88,4.5-8a1.3,1.3,0,0,1-.1-.25,2.07,2.07,0,0,1,1.16-2.53,2,2,0,0,1,1.48,0,2.09,2.09,0,0,1,1.13,1Z"/></g></svg>